<svg xmlns="http://www.w3.org/2000/svg" xmlns:xlink="http://www.w3.org/1999/xlink" version="1.1" width="1600" height="1600" viewBox="0 0 400 400" xml:space="preserve">

<path style="stroke: rgb(0,0,0); stroke-width: 1; stroke-dasharray: none; stroke-linecap: butt; stroke-dashoffset: 0; stroke-linejoin: miter; stroke-miterlimit: 4; fill: rgb(255,0,0); fill-rule: nonzero; opacity: 1;filter: url(#SVGID_66);"  transform=" translate(-89, 31)" d="L 29 -59 L 24 -66 L 18 -59 L 18 -26 L 18 10 L 12 28 L 2 32 L -7 28 L -0 24 L 5 1 L 6 -48 L 7 -73 L 11 -90 L 18 -94 L 27 -90 L 42 -76 L 39 -80 L 28 -87 L 19 -78 z M 5 10 L 5 6 z M 36 -64 L 41 -76 L 49 -63 L 52 -35 L 51 -10 L 52 -3 L 55 -8 L 64 -22 L 68 -28 L 69 -22 L 62 -4 L 51 0 L 40 -27 z M 77 -64 L 78 -64 L 77 -53 L 77 -54 L 83 -61 L 93 -63 L 98 -62 L 88 -58 L 77 -47 L 77 0 L 70 11 L 64 0 L 69 -34 z M 156 -22 L 148 -12 L 133 -1 L 115 -8 L 105 -24 L 115 -46 L 117 -62 L 119 -65 L 129 -41 L 143 -16 L 153 -17 z M 122 -54 L 121 -53 L 119 -40 L 118 -21 L 113 -16 L 110 -18 L 115 -8 L 120 -8 L 123 -31 z M 151 -81 L 163 -83 L 163 -63 L 173 -63 L 173 -59 L 168 -62 L 163 -59 L 163 -20 L 163 -9 L 166 -10 L 177 -20 L 186 -22 L 182 -6 L 171 0 L 159 -26 L 151 -59 L 147 -68 L 146 -64 L 151 -64 z" stroke-linecap="round" />
</svg>