<svg xmlns="http://www.w3.org/2000/svg" xmlns:xlink="http://www.w3.org/1999/xlink" width="154.1953125" height="108.421875"><path fill="red" d="M14.98 72L14.98 72Q10.79 72 8.30 70.49L8.30 70.49Q5.52 68.91 5.52 65.81L5.52 65.81L5.52 49.32L6.61 49.32Q8.37 49.32 8.37 48.16L8.37 48.16Q8.37 48.02 8.30 47.74L8.30 47.74L2.46 47.74Q0.42 44.82 0.42 40.54Q0.42 36.25 2.46 33.12L2.46 33.12L5.52 33.12Q6.36 27.28 10.09 24.19Q13.82 21.09 20.00 21.09L20.00 21.09Q24.43 21.09 27.70 22.36Q30.97 23.63 32.48 25.24L32.48 25.24Q32.84 26.40 32.84 28.05L32.84 28.05L32.84 28.72Q32.84 32.34 31.78 35.09L31.78 35.09Q29.36 36.04 25.00 36.04L25.00 36.04Q23.20 36.04 21.08 35.79Q18.95 35.54 17.93 35.30L17.93 35.30Q17.68 35.54 17.68 36L17.68 36Q17.68 36.60 19.37 37.11Q21.06 37.62 24.84 37.62Q28.62 37.62 31.04 37.20L31.04 37.20Q31.29 37.76 31.52 39.32Q31.75 40.89 31.75 42.40L31.75 42.40Q31.75 45.63 30.55 47.74L30.55 47.74L24.05 47.74L24.05 69.57Q20.21 72 14.98 72ZM51.40 39.90L51.40 39.90L51.40 53.82Q51.40 59.06 53.93 60.64L53.93 60.64Q53.96 60.82 53.96 61.31L53.96 61.31L53.96 61.95Q53.96 67.11 51.15 69.71L51.15 69.71Q48.55 72.18 44.21 72.18Q39.87 72.18 37.05 69.71L37.05 69.71Q33.50 66.59 33.50 60.57L33.50 60.57L33.50 37.72Q34.14 37.27 34.88 36.98Q35.61 36.70 36.42 36.28L36.42 36.28Q34.91 35.51 33.68 33.59Q32.45 31.68 32.45 29.11L32.45 29.11Q32.45 24.68 35.37 21.87Q38.29 19.05 42.52 19.05Q46.76 19.05 49.62 21.92Q52.49 24.79 52.49 29.11L52.49 29.11Q52.49 32.59 50.31 35.21Q48.13 37.83 45 38.50L45 38.50Q45 39.83 46.02 39.83L46.02 39.83Q47.81 39.83 49.68 38.43L49.68 38.43Q51.08 39.52 51.40 39.90ZM65.46 72L65.46 72Q61.28 72 58.78 70.49L58.78 70.49Q56.00 68.91 56.00 65.81L56.00 65.81L56.00 47.71Q53.93 44.79 53.93 40.52Q53.93 36.25 56.00 33.12L56.00 33.12L61.38 33.12Q65.53 33.12 67.32 35.79L67.32 35.79Q66.45 36.77 65.78 38.29Q65.11 39.80 65.11 40.45Q65.11 41.10 65.44 41.41Q65.78 41.73 66.41 41.73L66.41 41.73Q67.64 36.84 71.09 34.56L71.09 34.56Q73.93 32.63 78.12 32.63L78.12 32.63Q83.32 32.63 86.27 34.84L86.27 34.84Q87.33 37.65 87.33 41.71Q87.33 45.77 85.71 49.08L85.71 49.08Q84.52 49.71 82.41 50.15Q80.30 50.59 78.15 50.59Q76.01 50.59 74.30 50.29Q72.60 49.99 71.82 49.75L71.82 49.75Q71.54 50.03 71.54 50.55Q71.54 51.08 72.23 51.35Q72.91 51.61 74.53 51.93L74.53 51.93L74.53 69.57Q70.70 72 65.46 72ZM108.04 43.98L108.04 43.98Q107.12 44.26 107.12 45.07L107.12 45.07L107.12 45.25Q107.12 45.42 107.16 45.46L107.16 45.46Q107.54 45.42 108.18 45.42L108.18 45.42L109.02 45.42Q113.03 45.42 116.53 46.63Q120.02 47.85 122.24 50.52L122.24 50.52Q124.70 53.54 124.70 58.15L124.70 58.15Q124.70 65.32 119.74 68.98Q114.79 72.63 106.49 72.63Q98.19 72.63 93.50 69.89Q88.80 67.15 88.80 61.84L88.80 61.84Q88.80 59.87 89.65 58.24Q90.49 56.60 91.55 55.93L91.55 55.93Q93.48 57.55 97.15 58.73Q100.83 59.91 104.94 59.91L104.94 59.91Q106.59 59.91 106.59 58.99L106.59 58.99Q106.59 58.57 106.49 58.29L106.49 58.29Q106.24 58.32 105.89 58.32L105.89 58.32L105.50 58.32Q98.05 58.32 93.59 55.37L93.59 55.37Q88.52 52.03 88.52 45.95Q88.52 39.87 93.06 36.11L93.06 36.11Q98.09 31.96 106.88 31.96L106.88 31.96Q111.20 31.96 114.94 32.87Q118.69 33.79 121.36 35.30L121.36 35.30Q122.03 36.74 122.03 39.55L122.03 39.55Q122.03 43.84 119.67 46.13L119.67 46.13Q117.88 45.14 115.29 44.49Q112.71 43.84 110.64 43.84Q108.56 43.84 108.04 43.98ZM128.57 59.48L128.57 49.32L130.75 49.32Q132.50 49.32 132.50 48.16L132.50 48.16Q132.50 48.02 132.43 47.74L132.43 47.74L124.56 47.74Q123.79 45.28 123.79 42.24Q123.79 39.20 124.24 37.30L124.24 37.30Q126.25 36.04 129.76 33.43L129.76 33.43Q130.75 31.04 132.33 25.84L132.33 25.84Q132.54 25.14 132.82 24.47L132.82 24.47Q135.56 23.77 139.08 23.77Q142.59 23.77 146.00 24.50L146.00 24.50L146.00 33.12L152.09 33.12Q154.13 36.21 154.13 40.39L154.13 40.39Q154.13 42.29 153.60 44.30Q153.07 46.30 152.09 47.71L152.09 47.71L147.06 47.71L147.06 53.02Q147.06 57.52 150.82 57.52L150.82 57.52L152.33 57.52Q153.07 60.19 153.07 62.16L153.07 62.16Q153.07 67.01 150.03 69.59Q146.99 72.18 141.21 72.18Q135.42 72.18 131.99 68.96Q128.57 65.74 128.57 59.48L128.57 59.48Z"/>
<path fill="red" d="M19.20 29.11L19.20 29.11L19.20 53.82Q19.20 59.06 21.73 60.64L21.73 60.64Q21.76 60.82 21.76 61.31L21.76 61.31L21.76 61.95Q21.76 66.97 19.21 69.57Q16.66 72.18 11.99 72.18Q7.31 72.18 4.57 69.57L4.57 69.57Q1.30 66.48 1.30 60.22L1.30 60.22L1.30 23.70Q4.99 21.45 9.76 21.45Q14.52 21.45 16.86 23.47Q19.20 25.49 19.20 29.11ZM58.85 47.25L58.85 54.14Q58.85 56.67 59.41 58.22Q59.98 59.77 61.38 60.64L61.38 60.64Q61.42 60.82 61.42 61.31L61.42 61.31L61.42 61.95Q61.42 66.94 58.39 69.71L58.39 69.71Q55.72 72.18 51.79 72.18L51.79 72.18Q49.11 72.18 46.90 70.91Q44.68 69.64 43.73 67.25L43.73 67.25Q42.54 67.25 42.54 68.41L42.54 68.41Q42.54 69.40 43.77 70.63L43.77 70.63Q41.48 72.18 36.88 72.18L36.88 72.18Q30.38 72.18 26.49 68.64Q22.61 65.11 22.61 58.76Q22.61 52.42 26.72 48.94L26.72 48.94Q30.48 45.81 36.46 45.81L36.46 45.81Q38.50 45.81 40.39 46.09L40.39 46.09Q41.66 46.34 41.77 46.37L41.77 46.37Q41.87 46.02 41.87 45.77L41.87 45.77Q41.87 44.86 40.32 44.54Q38.78 44.23 36.28 44.23L36.28 44.23Q30.97 44.23 27.21 46.37L27.21 46.37Q25.49 43.45 25.49 38.99L25.49 38.99Q25.49 36.46 26.12 35.23L26.12 35.23Q28.65 34.07 32.55 33.17Q36.46 32.27 40.78 32.27L40.78 32.27Q49.71 32.27 54.28 36.18Q58.85 40.08 58.85 47.25L58.85 47.25ZM40.61 55.86L40.61 55.86Q39.13 55.86 39.13 57.20L39.13 57.20Q39.13 58.46 40.85 58.46L40.85 58.46Q42.05 58.46 42.61 57.88Q43.17 57.30 43.17 55.86L43.17 55.86Q43.17 55.86 40.61 55.86ZM81.67 43.98L81.67 43.98Q80.75 44.26 80.75 45.07L80.75 45.07L80.75 45.25Q80.75 45.42 80.79 45.46L80.79 45.46Q81.18 45.42 81.81 45.42L81.81 45.42L82.65 45.42Q86.66 45.42 90.16 46.63Q93.66 47.85 95.87 50.52L95.87 50.52Q98.33 53.54 98.33 58.15L98.33 58.15Q98.33 65.32 93.38 68.98Q88.42 72.63 80.12 72.63Q71.82 72.63 67.13 69.89Q62.44 67.15 62.44 61.84L62.44 61.84Q62.44 59.87 63.28 58.24Q64.13 56.60 65.18 55.93L65.18 55.93Q67.11 57.55 70.79 58.73Q74.46 59.91 78.57 59.91L78.57 59.91Q80.23 59.91 80.23 58.99L80.23 58.99Q80.23 58.57 80.12 58.29L80.12 58.29Q79.88 58.32 79.52 58.32L79.52 58.32L79.14 58.32Q71.68 58.32 67.22 55.37L67.22 55.37Q62.16 52.03 62.16 45.95Q62.16 39.87 66.69 36.11L66.69 36.11Q71.72 31.96 80.51 31.96L80.51 31.96Q84.83 31.96 88.58 32.87Q92.32 33.79 94.99 35.30L94.99 35.30Q95.66 36.74 95.66 39.55L95.66 39.55Q95.66 43.84 93.30 46.13L93.30 46.13Q91.51 45.14 88.93 44.49Q86.34 43.84 84.27 43.84Q82.20 43.84 81.67 43.98ZM102.20 59.48L102.20 49.32L104.38 49.32Q106.14 49.32 106.14 48.16L106.14 48.16Q106.14 48.02 106.07 47.74L106.07 47.74L98.19 47.74Q97.42 45.28 97.42 42.24Q97.42 39.20 97.88 37.30L97.88 37.30Q99.88 36.04 103.39 33.43L103.39 33.43Q104.38 31.04 105.96 25.84L105.96 25.84Q106.17 25.14 106.45 24.47L106.45 24.47Q109.20 23.77 112.71 23.77Q116.23 23.77 119.64 24.50L119.64 24.50L119.64 33.12L125.72 33.12Q127.76 36.21 127.76 40.39L127.76 40.39Q127.76 42.29 127.23 44.30Q126.70 46.30 125.72 47.71L125.72 47.71L120.69 47.71L120.69 53.02Q120.69 57.52 124.45 57.52L124.45 57.52L125.96 57.52Q126.70 60.19 126.70 62.16L126.70 62.16Q126.70 67.01 123.66 69.59Q120.62 72.18 114.84 72.18Q109.05 72.18 105.63 68.96Q102.20 65.74 102.20 59.48L102.20 59.48Z"/></svg>